<svg width="18" height="18" viewBox="0 0 18 18" fill="none" xmlns="http://www.w3.org/2000/svg">
<path d="M9.99442 9.00015L17.7941 1.20047C18.0687 0.925863 18.0687 0.480646 17.7941 0.206076C17.5195 -0.068494 17.0742 -0.0685292 16.7997 0.206076L8.99999 8.00576L1.20035 0.206076C0.925741 -0.0685292 0.480523 -0.0685292 0.205954 0.206076C-0.0686161 0.480681 -0.0686512 0.925899 0.205954 1.20047L8.0056 9.00011L0.205954 16.7998C-0.0686512 17.0744 -0.0686512 17.5196 0.205954 17.7942C0.343239 17.9315 0.523203 18.0001 0.703168 18.0001C0.883132 18.0001 1.06306 17.9315 1.20038 17.7942L8.99999 9.99454L16.7996 17.7942C16.9369 17.9315 17.1169 18.0001 17.2969 18.0001C17.4768 18.0001 17.6567 17.9315 17.7941 17.7942C18.0687 17.5196 18.0687 17.0744 17.7941 16.7998L9.99442 9.00015Z" fill="black"/>
</svg>
