<svg width="14" height="16" viewBox="0 0 14 16" fill="none" xmlns="http://www.w3.org/2000/svg">
<path d="M3.99967 4.53081V3.33081C3.99967 1.61721 5.33767 0.219208 6.99967 0.219208C8.66167 0.219208 9.99967 1.61721 9.99967 3.33081V4.53081H12.0733C12.1683 4.53088 12.2597 4.56694 12.3292 4.63174C12.3987 4.69653 12.441 4.78524 12.4477 4.88001L13.1605 15.38C13.1667 15.4792 13.1336 15.5769 13.0681 15.6517C13.0027 15.7266 12.9104 15.7725 12.8113 15.7796H1.21327C1.11397 15.7796 1.01874 15.7402 0.948526 15.6699C0.878313 15.5997 0.838867 15.5045 0.838867 15.4052V15.38L1.55167 4.88001C1.55805 4.78503 1.60026 4.69602 1.66977 4.63097C1.73927 4.56593 1.83088 4.5297 1.92607 4.52961L3.99967 4.53081ZM5.12527 4.53081H8.87527V3.33081C8.87527 2.22801 8.03527 1.34361 6.99967 1.34361C5.96407 1.34361 5.12527 2.22801 5.12527 3.33081V4.53081ZM2.01607 14.6564H11.9833L11.3737 5.65641H2.62687L2.01607 14.6564Z" fill="white"/>
</svg>
