<svg width="84" height="16" viewBox="0 0 84 16" fill="none" xmlns="http://www.w3.org/2000/svg">
<rect width="15.75" height="15.75" fill="#04B57C"/>
<g clip-path="url(#clip0_103_1476)">
<path d="M7.875 10.4688L10.9167 12.3047L10.112 8.84461L12.7969 6.51902L9.25805 6.21387L7.875 2.95312L6.49195 6.21387L2.95312 6.51902L5.63801 8.84461L4.83328 12.3047L7.875 10.4688Z" fill="white"/>
</g>
<rect x="34.125" width="15.75" height="15.75" fill="#04B57C"/>
<g clip-path="url(#clip1_103_1476)">
<path d="M42 10.4688L45.0417 12.3047L44.237 8.84461L46.9219 6.51902L43.383 6.21387L42 2.95312L40.617 6.21387L37.0781 6.51902L39.763 8.84461L38.9583 12.3047L42 10.4688Z" fill="white"/>
</g>
<rect x="17.0625" width="15.75" height="15.75" fill="#04B57C"/>
<g clip-path="url(#clip2_103_1476)">
<path d="M24.9375 10.4688L27.9792 12.3047L27.1745 8.84461L29.8594 6.51902L26.3205 6.21387L24.9375 2.95312L23.5545 6.21387L20.0156 6.51902L22.7005 8.84461L21.8958 12.3047L24.9375 10.4688Z" fill="white"/>
</g>
<rect x="51.1875" width="15.75" height="15.75" fill="#04B57C"/>
<g clip-path="url(#clip3_103_1476)">
<path d="M59.0625 10.4688L62.1042 12.3047L61.2995 8.84461L63.9844 6.51902L60.4455 6.21387L59.0625 2.95312L57.6795 6.21387L54.1406 6.51902L56.8255 8.84461L56.0208 12.3047L59.0625 10.4688Z" fill="white"/>
</g>
<rect x="68.25" width="15.75" height="15.75" fill="#04B57C"/>
<g clip-path="url(#clip4_103_1476)">
<path d="M76.125 10.4688L79.1667 12.3047L78.362 8.84461L81.0469 6.51902L77.508 6.21387L76.125 2.95312L74.742 6.21387L71.2031 6.51902L73.888 8.84461L73.0833 12.3047L76.125 10.4688Z" fill="white"/>
</g>
<defs>
<clipPath id="clip0_103_1476">
<rect width="11.8125" height="11.8125" fill="white" transform="translate(1.96875 1.96875)"/>
</clipPath>
<clipPath id="clip1_103_1476">
<rect width="11.8125" height="11.8125" fill="white" transform="translate(36.0938 1.96875)"/>
</clipPath>
<clipPath id="clip2_103_1476">
<rect width="11.8125" height="11.8125" fill="white" transform="translate(19.0312 1.96875)"/>
</clipPath>
<clipPath id="clip3_103_1476">
<rect width="11.8125" height="11.8125" fill="white" transform="translate(53.1562 1.96875)"/>
</clipPath>
<clipPath id="clip4_103_1476">
<rect width="11.8125" height="11.8125" fill="white" transform="translate(70.2188 1.96875)"/>
</clipPath>
</defs>
</svg>
